<svg width="42" height="33" viewBox="0 0 42 33" fill="none" xmlns="http://www.w3.org/2000/svg">
<path d="M7.76205 14.4378V12.0916L6.07154 11.2384L21.9201 3.77289L31.4292 8.03887V11.4517L33.5424 10.8118V6.75908L21.9201 1L1 11.2384L7.76205 14.4378Z" fill="#26AE79" stroke="#26AE79" stroke-width="0.5"/>
<path d="M33.1503 19.5216L31.2409 20.1638C31.2409 20.1638 31.2409 21.4481 30.8166 22.9465C30.3923 24.4449 29.347 26.2117 27.6343 27.6557C25.6212 29.0882 24.0934 29.9557 21.4819 30.2243C18.8691 29.9707 17.5197 28.867 15.3294 27.4416C13.8262 25.9279 12.5715 24.2308 12.3593 22.9465C12.1472 21.6622 12.1472 17.167 12.1472 17.167L21.4819 21.6622L38.8784 13.5281V15.6687L40.9999 16.3108V10.7454L35.6961 8.39081V10.7454L36.969 11.6016L21.4819 19.0935L9.81348 13.5281C9.81348 13.5281 9.81347 19.9497 10.0256 22.7324C10.2378 25.5151 11.5107 27.4416 13.6322 29.1541C15.7538 30.8665 18.5117 32.5789 21.4819 32.5789C24.452 32.5789 26.7094 31.1583 28.9072 29.3681C31.237 27.2991 32.726 24.873 32.9381 23.3746C33.1503 21.8762 33.1503 19.5216 33.1503 19.5216Z" fill="#343D53" stroke="#343D53" stroke-width="0.5"/>
</svg>
